<svg width="230" height="253" viewBox="0 0 230 253" fill="none" xmlns="http://www.w3.org/2000/svg">
<g clip-path="url(#clip0_120_7)">
<path fill-rule="evenodd" clip-rule="evenodd" d="M152 251.089H161.5C161.5 238.923 161 208.889 159 186.089H164V174.589H123H116H23.5C22.3333 173.923 20 171.789 20 168.589L18.3424 157.589L17.589 152.589L16.0822 142.589L15.2534 137.089L13.0685 122.589L11.5616 112.589L10.7367 106.588L9.49998 97.5895L11 97.5895C10.5507 93.1796 7.01367 92.4146 4.99998 92.5895C2.11778 92.5895 0.689475 95.9228 0.636963 97.5895H2.27395L3.50683 106.589L4.32874 112.589L5.5 122.589L6.49998 128.439L7.89039 138.589L8.43833 142.589L9.94518 153.589L10.4931 157.589L12 168.589C11.5 170.089 10.8 174.689 12 181.089C13.5 189.089 12.5 230.089 6.99998 243.089C5.79998 246.78 3.83331 249.96 2.99998 251.089H15.2534C15.1689 245.256 16 229.989 20 215.589C28.8333 214.256 46.6 213.889 47 223.089C47.5 234.589 49.5 240.589 47.5 251.089L58 251.089C54 243.59 55.5 195.589 56 193.089C56.4 191.089 57.5 186.923 58 185.089H112.5H127.5C131.5 185.089 140.167 186.256 144 187.089C152.438 190.068 152.171 204.707 152.004 213.888L152 214.089C152 210.489 134.333 209.923 125.5 210.089C123.1 196.489 125.833 187.756 127.5 185.089H112.5C115.7 185.089 116.5 193.423 116.5 197.589L116 230.089C114 235.689 113.167 242.423 113 245.089H125.5C121 218.589 126.833 215.423 128.5 215.589C146 214.589 150 215.589 152 223.089C153.6 229.089 152.667 244.256 152 251.089ZM36.5 186.089C47.7 186.889 48.1666 205.423 47 214.089C46.2 209.689 28.6666 208.923 20 209.089C19.6 198.289 22.5 188.256 24 185.089L36.5 186.089Z" fill="black"/>
<path d="M20 168.589L114.762 168.067L112.772 157.589H18.3424L20 168.589Z" fill="black"/>
<path d="M14.0344 129L15.2534 137.089H108.88L107.237 128.439L14.0344 129Z" fill="black"/>
<path d="M16.0822 142.589L17.589 152.589H111.823L109.924 142.589H16.0822Z" fill="black"/>
<path d="M11.5616 112.589L13.0685 122.589L106.032 122.089L104.133 112.089L11.5616 112.589Z" fill="black"/>
<path d="M102.994 106.089L101.285 97.0895L99.0015 97.1021L11 97.5895L9.49998 97.5895L10.7367 106.588L102.994 106.089Z" fill="black"/>
<path d="M3.50683 106.589L2.27395 97.5895H0.636963L0 97.5895L1.49999 106.589H3.50683Z" fill="black"/>
<path d="M5.5 122.589L4.32874 112.589H2.27395L3.5 122.589H5.5Z" fill="black"/>
<path d="M7.89039 138.589L6.49998 128.439H4.32874L5.94518 138.589H7.89039Z" fill="black"/>
<path d="M7.99998 153.589H9.94518L8.43833 142.589H6.49998L7.99998 153.589Z" fill="black"/>
<path d="M9.99998 168.589H12L10.4931 157.589H8.49998L9.99998 168.589Z" fill="black"/>
<path d="M116 174.589H123L116.839 142.589L114.114 128.439L112.891 122.089L110.966 112.089L109.811 106.089L108.078 97.0895L107.763 95.4568C106.859 92.4381 104.517 91.7613 102.994 92.0668C100.5 92.5668 99.054 95.4354 99.0015 97.1021L101.285 97.0895L102.994 106.089L104.133 112.089L106.032 122.089L106.981 127.089L107.237 128.439L108.88 137.089L109.924 142.589L111.823 152.589L112.772 157.589L114.762 168.067L116 174.589Z" fill="black"/>
<path d="M101 95.5895L104.133 112.089M116 174.589H123M116 174.589L106.981 127.089M116 174.589H23.5C22.3333 173.923 20 171.789 20 168.589M116 174.589L114.762 168.067M107.5 94.0895L107.763 95.4568M123 174.589H164V186.089H159C161 208.889 161.5 238.923 161.5 251.089H152C152.667 244.256 153.6 229.089 152 223.089C150 215.589 146 214.589 128.5 215.589C126.833 215.423 121 218.589 125.5 245.089H113C113.167 242.423 114 235.689 116 230.089L116.5 197.589C116.5 193.423 115.7 185.089 112.5 185.089M123 174.589L116.839 142.589L114.114 128.439L112.891 122.089L110.966 112.089L109.811 106.089L108.078 97.0895M112.5 185.089C109.3 185.089 121.167 185.089 127.5 185.089M112.5 185.089H58C57.5 186.923 56.4 191.089 56 193.089C55.5 195.589 54 243.59 58 251.089L47.5 251.089C49.5 240.589 47.5 234.589 47 223.089C46.6 213.889 28.8333 214.256 20 215.589C16 229.989 15.1689 245.256 15.2534 251.089H2.99998C3.83331 249.96 5.79998 246.78 6.99998 243.089C12.5 230.089 13.5 189.089 12 181.089C10.8 174.689 11.5 170.089 12 168.589M112.5 185.089H127.5M127.5 185.089C125.833 187.756 123.1 196.489 125.5 210.089C134.333 209.923 152 210.489 152 214.089M127.5 185.089C131.5 185.089 140.167 186.256 144 187.089C152.438 190.068 152.171 204.707 152.004 213.888M152 214.089L152.004 213.888M152 214.089C152.001 214.023 152.002 213.955 152.004 213.888M20 168.589L114.762 168.067M20 168.589L11.5616 112.589M20 168.589L18.3424 157.589M114.762 168.067L112.772 157.589M112.772 157.589H18.3424M112.772 157.589L111.823 152.589M18.3424 157.589L17.589 152.589M2.27395 97.5895L4.32874 112.589M2.27395 97.5895H0.636963M2.27395 97.5895L3.50683 106.589M2.27395 97.5895L0 97.5895M12 168.589H9.99998L8.49998 157.589H10.4931M12 168.589L10.4931 157.589M10.4931 157.589L9.94518 153.589M9.94518 153.589H7.99998L6.49998 142.589H8.43833M9.94518 153.589L8.43833 142.589M8.43833 142.589L7.89039 138.589M7.89039 138.589L6.49998 128.439M7.89039 138.589H5.94518L4.32874 128.439H6.49998M6.49998 128.439L5.5 122.589M5.5 122.589L4.32874 112.589M5.5 122.589H3.5L2.27395 112.589H4.32874M4.32874 112.589L3.50683 106.589M104.133 112.089L11.5616 112.589M104.133 112.089L106.981 127.089M104.133 112.089L106.032 122.089M104.133 112.089L102.994 106.089M11.5616 112.589L13.0685 122.589M11.5616 112.589L10.7367 106.588M106.981 127.089L106.032 122.089M106.981 127.089L107.237 128.439M107.237 128.439L14.0344 129L15.2534 137.089M107.237 128.439L108.88 137.089M111.823 152.589H17.589M111.823 152.589L109.924 142.589M17.589 152.589L16.0822 142.589M106.032 122.089L13.0685 122.589M13.0685 122.589L15.2534 137.089M108.88 137.089H15.2534M108.88 137.089L109.924 142.589M15.2534 137.089L16.0822 142.589M109.924 142.589H16.0822M102.994 106.089L10.7367 106.588M102.994 106.089L101.285 97.0895M10.4224 106.589L10.7367 106.588M101.285 97.0895L11 97.5895M101.285 97.0895L99.0015 97.1021M0.636963 97.5895C0.689475 95.9228 2.11778 92.5895 4.99998 92.5895C7.01367 92.4146 10.5507 93.1796 11 97.5895M0.636963 97.5895L0 97.5895M11 97.5895L9.49998 97.5895L10.7367 106.588M11 97.5895L99.0015 97.1021M108.078 97.0895L107.763 95.4568M108.078 97.0895C108.016 96.4817 107.908 95.9393 107.763 95.4568M3.50683 106.589H1.49999L0 97.5895M99.0015 97.1021C99.054 95.4354 100.5 92.5668 102.994 92.0668C104.517 91.7613 106.859 92.4381 107.763 95.4568M47 214.089C48.1666 205.423 47.7 186.889 36.5 186.089L24 185.089C22.5 188.256 19.6 198.289 20 209.089C28.6666 208.923 46.2 209.689 47 214.089Z" stroke="black"/>
<path d="M152.225 233.011H148.725C139.225 169.511 137.725 167.011 136.725 166.011C135.725 165.011 124.225 166.511 115.225 167.011C108.025 167.411 100.891 170.511 98.2246 172.011C91.3913 174.511 75.0246 177.611 64.2246 170.011C53.4246 162.411 52.3912 117.511 53.2246 96.0107C52.4246 71.2107 65.2246 52.344 71.7246 46.0107V43.5107L75.7246 38.5107H78.2246C79.0246 38.5107 81.2246 34.844 82.2246 33.0107C81.2246 13.0107 85.7246 0.510714 98.7246 0.0107139C109.125 -0.389286 121.725 10.5107 126.725 16.0107C126.725 18.0107 124.725 19.844 123.725 20.5107H117.725V25.5107C117.725 27.9107 116.391 29.5107 115.725 30.0107V41.0107H114.725H112.225C109.425 41.0107 109.391 44.0107 109.725 45.5107H106.725C106.725 49.5107 103.058 50.5107 101.225 50.5107L97.2246 47.0107C94.4246 48.2107 93.0579 50.844 92.7246 52.0107L96.7246 56.5107C96.7246 58.1107 95.7246 61.1774 95.2246 62.5107C100.425 76.1107 103.058 93.844 103.725 101.011L130.225 97.0107L131.225 99.0107L134.725 97.0107C136.725 93.4107 140.891 89.1774 142.725 87.5107L134.725 81.0107L165.225 49.5107L173.225 56.5107C175.625 55.7107 178.891 60.844 180.225 63.5107L184.225 61.0107V68.0107L185.725 69.0107C173.725 78.2107 164.058 88.844 160.725 93.0107V94.0107H156.725C155.925 98.4107 153.058 101.844 151.725 103.011C146.525 105.411 138.225 107.344 134.725 108.011V114.511C117.125 117.311 114.391 120.344 115.225 121.511H105.725V127.011C115.725 126.011 138.325 123.911 148.725 123.511C159.125 123.111 165.391 128.344 167.225 131.011C178.425 157.811 194.558 180.511 201.225 188.511L198.725 191.011C209.525 199.011 220.558 198.011 224.725 196.511C229.525 196.111 230.058 199.344 229.725 201.011C222.925 209.011 206.225 210.677 198.725 210.511L199.725 213.511L185.725 217.011C182.525 212.211 181.058 205.011 180.725 202.011C179.525 201.611 176.891 202.844 175.725 203.511C175.725 200.311 169.058 185.177 165.725 178.011C167.325 202.811 173.058 220.677 175.725 226.511C174.125 227.711 172.391 228.344 171.725 228.511L172.225 229.511C182.625 239.911 198.558 241.844 205.225 241.511C206.025 244.311 205.558 247.011 205.225 248.011C197.625 252.411 178.058 250.511 169.225 249.011V251.011H151.225C150.425 245.411 151.558 236.677 152.225 233.011Z" fill="black" stroke="black"/>
</g>
<defs>
<clipPath id="clip0_120_7">
<rect width="230" height="253" fill="white"/>
</clipPath>
</defs>
</svg>
