<svg width="315" height="466" viewBox="0 0 315 466" fill="none" xmlns="http://www.w3.org/2000/svg">
<g filter="url(#filter0_d_52_162)">
<path d="M155 425.555V430.055C155 431.073 154.8 433.498 154 435.055C153.2 436.611 156 437.37 157.5 437.555C160.167 437.721 167.5 437.455 175.5 435.055C178.167 434.388 181.9 432.155 175.5 428.555H174.5C171.5 428.573 165.3 426.698 164.5 419.055H164H163V417.055V413.555H148.5C149.833 414.555 152.6 418.355 153 425.555H155Z" fill="#09090D"/>
<path d="M128 439.055H131.5V442.055V445.5V449.5C129.9 449.5 128.917 450.833 128.625 451.5V456.555H129H141.5V451.5C141.5 450.833 140.9 449.5 138.5 449.5V445.5V442.055V439.055H142V413.555H125C127 413.555 127.833 417.221 128 419.055V439.055Z" fill="#09090D"/>
<path d="M142 413.555H146H148.5H163H163.5H264.5V406.555H159.5H109.5H91.5V413.555H125H142Z" fill="#09090D"/>
<path d="M91.5 456.555V413.555V406.555V403.555V396.555V393.555V386.555V383.555V376.555V373.555V366.555V360.055H86.5V366.555V373.555V376.555V383.555V386.555V393.555V396.555V403.555V406.555V413.555V456.555H91.5Z" fill="#09090D"/>
<path d="M86.5 406.555H74.5V413.555H86.5V406.555Z" fill="#09090D"/>
<path d="M86.5 396.555H79.5V403.555H86.5V396.555Z" fill="#09090D"/>
<path d="M264.5 403.555V396.555H155H105.5H91.5V403.555H108.5H159.5H264.5Z" fill="#09090D"/>
<path d="M264.5 393.555V386.555H151.5H105.5H91.5V393.555H105.5H155H264.5Z" fill="#09090D"/>
<path d="M86.5 386.555H79.5V393.555H86.5V386.555Z" fill="#09090D"/>
<path d="M86.5 376.555H79.5V383.555H86.5V376.555Z" fill="#09090D"/>
<path d="M79.5 366.555V373.555H86.5V366.555H79.5Z" fill="#09090D"/>
<path d="M91.5 373.555H95H96H159.5H264.5V366.555H168.5H96H91.5V373.555Z" fill="#09090D"/>
<path d="M264.5 383.555V376.555H159.5H96H95.5H91.5V383.555H105.5H151.5H264.5Z" fill="#09090D"/>
<path d="M151.5 386.555V383.555H105.5V386.555H151.5Z" fill="#09090D"/>
<path d="M155 396.555V393.555H105.5V396.555H155Z" fill="#09090D"/>
<path d="M159.5 406.555V403.555H108.5L109.5 405.055V406.555H159.5Z" fill="#09090D"/>
<path d="M168.5 366.555V360.055C169.167 359.055 170.6 356.755 171 355.555C171.4 354.355 171.5 351.721 171.5 350.555C171.5 349.555 172.7 346.455 177.5 342.055C174.667 342.055 167.3 343.555 160.5 349.555H158.5C156.167 347.888 148.8 344.255 138 343.055V340.555H141.5C143.333 340.555 148 341.055 152 343.055C151 339.888 146 332.955 134 330.555V327.055H135.5C134.7 323.782 135.833 321.024 136.5 320.055H137.5C137.5 318.098 139.167 314.239 140 312.555V309.055C139.833 308.653 139.4 307.69 139 307.055C137.319 304.187 133.867 300.605 129.5 300.502C126.505 300.432 123.08 301.998 119.5 306.555V308C119 309.536 118.6 313.498 121 317.055V320.055H122V324.555C121.667 326.555 120.1 330.555 116.5 330.555C111 332.888 99.3 338.655 96.5 343.055L96 366.555H168.5Z" fill="#09090D"/>
<path d="M264.5 456.555H269.5V413.555V406.555V403.555V396.555V393.555V386.555V383.555V376.555V373.555V366.555V361.5H264.5V366.555V373.555V376.555V383.555V386.555V393.555V396.555V403.555V406.555V413.555V456.555Z" fill="#09090D"/>
<path d="M269.5 413.555H281.5V406.555H269.5V413.555Z" fill="#09090D"/>
<path d="M269.5 403.555H276.5V396.555H269.5V403.555Z" fill="#09090D"/>
<path d="M269.5 393.555H276.5V386.555H269.5V393.555Z" fill="#09090D"/>
<path d="M269.5 383.555H276.5V376.555H269.5V383.555Z" fill="#09090D"/>
<path d="M269.5 373.555H276.5V366.555H269.5V373.555Z" fill="#09090D"/>
<path d="M159.5 375.055V373.555H96V376.555H159.5V375.055Z" fill="#09090D"/>
<path d="M91.5 456.555V413.555M91.5 456.555H127.5H128.25H128.625M91.5 456.555H86.5M91.5 413.555V406.555M91.5 413.555H125M141.5 456.555H264.5M141.5 456.555H129H128.625M141.5 456.555V451.5C141.5 450.833 140.9 449.5 138.5 449.5V445.5V442.055V439.055H142V413.555M142 413.555H146H148.5M142 413.555H125M264.5 413.555H163.5H163M264.5 413.555V456.555M264.5 413.555V406.555M264.5 413.555V376.555M264.5 456.555H269.5V413.555M264.5 456.555H310.5M269.5 413.555H281.5V406.555H269.5M269.5 413.555V396.555M269.5 413.555V406.555M269.5 406.555V403.555M269.5 403.555H276.5V396.555H269.5M269.5 403.555V396.555M269.5 396.555V393.555M269.5 393.555H276.5V386.555H269.5M269.5 393.555V386.555M269.5 386.555V383.555M269.5 383.555H276.5V376.555H269.5M269.5 383.555V376.555M269.5 376.555V373.555M269.5 373.555H276.5V366.555H269.5M269.5 373.555V366.555M269.5 366.555V361.5H264.5V366.555M86.5 373.555H79.5V366.555H86.5M86.5 373.555V376.555M86.5 373.555V413.555M86.5 373.555V366.555M86.5 376.555H79.5V383.555H86.5M86.5 376.555V383.555M86.5 383.555V386.555M86.5 386.555H79.5V393.555H86.5M86.5 386.555V393.555M86.5 393.555V396.555M86.5 396.555H79.5V403.555H86.5M86.5 396.555V403.555M86.5 403.555V406.555M86.5 406.555H74.5V413.555H86.5M86.5 406.555V413.555M86.5 413.555V456.555M86.5 456.555H22H4M91.5 373.555H95H96M91.5 373.555V376.555M91.5 373.555V366.555M159.5 373.555V375.055V376.555M159.5 373.555H96M159.5 373.555H264.5M91.5 383.555V386.555M91.5 383.555V376.555M91.5 383.555H105.5M264.5 383.555V376.555M264.5 383.555H151.5M264.5 383.555V386.555M264.5 366.555H168.5M264.5 366.555V373.555M264.5 406.555H159.5M264.5 406.555V403.555M91.5 406.555V403.555M91.5 406.555H109.5M91.5 403.555V396.555M91.5 403.555H108.5M264.5 403.555V396.555M264.5 403.555H159.5M264.5 396.555H155M264.5 396.555V393.555M91.5 396.555V393.555M91.5 396.555H105.5M91.5 393.555V386.555M91.5 393.555H105.5M264.5 393.555V386.555M264.5 393.555H155M264.5 386.555H151.5M91.5 386.555H105.5M264.5 376.555H159.5M264.5 376.555V373.555M91.5 376.555H95.5H96M159.5 376.555H96M151.5 383.555V386.555M151.5 383.555H105.5M151.5 386.555H105.5M155 393.555V396.555M155 393.555H105.5M155 396.555H105.5M159.5 403.555V406.555M159.5 403.555H108.5M159.5 406.555H109.5M109.5 406.555V405.055L108.5 403.555M105.5 396.555V393.555M105.5 386.555V383.555M168.5 366.555V360.055C169.167 359.055 170.6 356.755 171 355.555C171.4 354.355 171.5 351.721 171.5 350.555C171.5 349.555 172.7 346.455 177.5 342.055C174.667 342.055 167.3 343.555 160.5 349.555H158.5C156.167 347.888 148.8 344.255 138 343.055V340.555H141.5C143.333 340.555 148 341.055 152 343.055C151 339.888 146 332.955 134 330.555V327.055H135.5C134.7 323.782 135.833 321.024 136.5 320.055H137.5C137.5 318.098 139.167 314.239 140 312.555V309.055C139.833 308.653 139.4 307.69 139 307.055C137.319 304.187 133.867 300.605 129.5 300.502C126.505 300.432 123.08 301.998 119.5 306.555V308C119 309.536 118.6 313.498 121 317.055V320.055H122V324.555C121.667 326.555 120.1 330.555 116.5 330.555C111 332.888 99.3 338.655 96.5 343.055L96 366.555M168.5 366.555H96M96 366.555H91.5M96 376.555V373.555M86.5 366.555V360.055H91.5V366.555M163 413.555V417.055V419.055H164H164.5C165.3 426.698 171.5 428.573 174.5 428.555H175.5C181.9 432.155 178.167 434.388 175.5 435.055C167.5 437.455 160.167 437.721 157.5 437.555C156 437.37 153.2 436.611 154 435.055C154.8 433.498 155 431.073 155 430.055V425.555H153C152.6 418.355 149.833 414.555 148.5 413.555M163 413.555H125M163 413.555H148.5M128.625 456.555V451.5C128.917 450.833 129.9 449.5 131.5 449.5V445.5V442.055V439.055H128V419.055C127.833 417.221 127 413.555 125 413.555" stroke="#09090D"/>
</g>
<path d="M20.5 446.5V456.5H61.5V446.5H53.5V383.5C52.8333 381.833 50.1 378.5 44.5 378.5V69.5C44.5 48.8333 63.7 8.5 106.5 8.5C126.667 8.66667 158.5 19.3 158.5 64.5H165.5C165.5 14.1 129 1 106.5 1C56.5 1 36.8333 46.8333 37.5 69.5V378.5C31.9 378.5 29.1667 383.833 28.5 386.5V446.5H20.5Z" fill="black"/>
<path d="M165.5 64.5H158.5H156.5V71.5C150.5 72.3333 137.7 77.6 134.5 92V101.5H138.5H185H189.5V92C185.9 77.2 173.333 72.1667 167.5 71.5V64.5H165.5Z" fill="black"/>
<path d="M158.5 64.5C158.5 19.3 126.667 8.66667 106.5 8.5C63.7 8.5 44.5 48.8333 44.5 69.5V378.5C50.1 378.5 52.8333 381.833 53.5 383.5V446.5H61.5V456.5H20.5V446.5H28.5V386.5C29.1667 383.833 31.9 378.5 37.5 378.5V69.5C36.8333 46.8333 56.5 1 106.5 1C129 1 165.5 14.1 165.5 64.5M158.5 64.5H165.5M158.5 64.5H156.5V71.5C150.5 72.3333 137.7 77.6 134.5 92V101.5H138.5M165.5 64.5H167.5V71.5C173.333 72.1667 185.9 77.2 189.5 92V101.5H185M185 101.5H138.5M185 101.5C183 107.833 175.7 120.5 162.5 120.5C147.7 120.5 140.333 107.833 138.5 101.5" stroke="black"/>
<defs>
<filter id="filter0_d_52_162" x="0" y="300" width="314.5" height="165.054" filterUnits="userSpaceOnUse" color-interpolation-filters="sRGB">
<feFlood flood-opacity="0" result="BackgroundImageFix"/>
<feColorMatrix in="SourceAlpha" type="matrix" values="0 0 0 0 0 0 0 0 0 0 0 0 0 0 0 0 0 0 127 0" result="hardAlpha"/>
<feOffset dy="4"/>
<feGaussianBlur stdDeviation="2"/>
<feComposite in2="hardAlpha" operator="out"/>
<feColorMatrix type="matrix" values="0 0 0 0 0 0 0 0 0 0 0 0 0 0 0 0 0 0 0.25 0"/>
<feBlend mode="normal" in2="BackgroundImageFix" result="effect1_dropShadow_52_162"/>
<feBlend mode="normal" in="SourceGraphic" in2="effect1_dropShadow_52_162" result="shape"/>
</filter>
</defs>
</svg>
