<svg width="608" height="506" viewBox="0 0 608 506" fill="none" xmlns="http://www.w3.org/2000/svg">
<g filter="url(#filter0_f_52_153)">
<path d="M282.5 120.991C268.008 120.591 260.795 108.164 259 102L50 456H558L306 102C304.205 108.497 296.992 121.391 282.5 120.991Z" fill="url(#paint0_linear_52_153)"/>
</g>
<g filter="url(#filter1_d_52_153)">
<path d="M276 425.555V430.055C276 431.073 275.8 433.498 275 435.055C274.2 436.611 277 437.37 278.5 437.555C281.167 437.721 288.5 437.455 296.5 435.055C299.167 434.388 302.9 432.155 296.5 428.555H295.5C292.5 428.573 286.3 426.698 285.5 419.055H285H284V417.055V413.555H269.5C270.833 414.555 273.6 418.355 274 425.555H276Z" fill="#260101"/>
<path d="M249 439.055H252.5V442.055V445.5V449.5C250.9 449.5 249.917 450.833 249.625 451.5V456.555H250H262.5V451.5C262.5 450.833 261.9 449.5 259.5 449.5V445.5V442.055V439.055H263V413.555H246C248 413.555 248.833 417.221 249 419.055V439.055Z" fill="#260101"/>
<path d="M263 413.555H267H269.5H284H284.5H385.5V406.555H280.5H230.5H212.5V413.555H246H263Z" fill="#260101"/>
<path d="M212.5 456.555V413.555V406.555V403.555V396.555V393.555V386.555V383.555V376.555V373.555V366.555V360.055H207.5V366.555V373.555V376.555V383.555V386.555V393.555V396.555V403.555V406.555V413.555V456.555H212.5Z" fill="#260101"/>
<path d="M207.5 406.555H195.5V413.555H207.5V406.555Z" fill="#260101"/>
<path d="M207.5 396.555H200.5V403.555H207.5V396.555Z" fill="#260101"/>
<path d="M385.5 403.555V396.555H276H226.5H212.5V403.555H229.5H280.5H385.5Z" fill="#260101"/>
<path d="M385.5 393.555V386.555H272.5H226.5H212.5V393.555H226.5H276H385.5Z" fill="#260101"/>
<path d="M207.5 386.555H200.5V393.555H207.5V386.555Z" fill="#260101"/>
<path d="M207.5 376.555H200.5V383.555H207.5V376.555Z" fill="#260101"/>
<path d="M200.5 366.555V373.555H207.5V366.555H200.5Z" fill="#260101"/>
<path d="M212.5 373.555H216H217H280.5H385.5V366.555H289.5H217H212.5V373.555Z" fill="#260101"/>
<path d="M385.5 383.555V376.555H280.5H217H216.5H212.5V383.555H226.5H272.5H385.5Z" fill="#260101"/>
<path d="M272.5 386.555V383.555H226.5V386.555H272.5Z" fill="#260101"/>
<path d="M276 396.555V393.555H226.5V396.555H276Z" fill="#260101"/>
<path d="M280.5 406.555V403.555H229.5L230.5 405.055V406.555H280.5Z" fill="#260101"/>
<path d="M289.5 366.555V360.055C290.167 359.055 291.6 356.755 292 355.555C292.4 354.355 292.5 351.721 292.5 350.555C292.5 349.555 293.7 346.455 298.5 342.055C295.667 342.055 288.3 343.555 281.5 349.555H279.5C277.167 347.888 269.8 344.255 259 343.055V340.555H262.5C264.333 340.555 269 341.055 273 343.055C272 339.888 267 332.955 255 330.555V327.055H256.5C255.7 323.782 256.833 321.024 257.5 320.055H258.5C258.5 318.098 260.167 314.239 261 312.555V309.055C260.833 308.653 260.4 307.69 260 307.055C258.319 304.187 254.867 300.605 250.5 300.502C247.505 300.432 244.08 301.998 240.5 306.555V308C240 309.536 239.6 313.498 242 317.055V320.055H243V324.555C242.667 326.555 241.1 330.555 237.5 330.555C232 332.888 220.3 338.655 217.5 343.055L217 366.555H289.5Z" fill="#260101"/>
<path d="M385.5 456.555H390.5V413.555V406.555V403.555V396.555V393.555V386.555V383.555V376.555V373.555V366.555V361.5H385.5V366.555V373.555V376.555V383.555V386.555V393.555V396.555V403.555V406.555V413.555V456.555Z" fill="#260101"/>
<path d="M390.5 413.555H402.5V406.555H390.5V413.555Z" fill="#260101"/>
<path d="M390.5 403.555H397.5V396.555H390.5V403.555Z" fill="#260101"/>
<path d="M390.5 393.555H397.5V386.555H390.5V393.555Z" fill="#260101"/>
<path d="M390.5 383.555H397.5V376.555H390.5V383.555Z" fill="#260101"/>
<path d="M390.5 373.555H397.5V366.555H390.5V373.555Z" fill="#260101"/>
<path d="M280.5 375.055V373.555H217V376.555H280.5V375.055Z" fill="#260101"/>
<path d="M212.5 456.555V413.555M212.5 456.555H248.5H249.25H249.625M212.5 456.555H207.5M212.5 413.555V406.555M212.5 413.555H246M262.5 456.555H385.5M262.5 456.555H250H249.625M262.5 456.555V451.5C262.5 450.833 261.9 449.5 259.5 449.5V445.5V442.055V439.055H263V413.555M263 413.555H267H269.5M263 413.555H246M385.5 413.555H284.5H284M385.5 413.555V456.555M385.5 413.555V406.555M385.5 413.555V376.555M385.5 456.555H390.5V413.555M385.5 456.555H431.5M390.5 413.555H402.5V406.555H390.5M390.5 413.555V396.555M390.5 413.555V406.555M390.5 406.555V403.555M390.5 403.555H397.5V396.555H390.5M390.5 403.555V396.555M390.5 396.555V393.555M390.5 393.555H397.5V386.555H390.5M390.5 393.555V386.555M390.5 386.555V383.555M390.5 383.555H397.5V376.555H390.5M390.5 383.555V376.555M390.5 376.555V373.555M390.5 373.555H397.5V366.555H390.5M390.5 373.555V366.555M390.5 366.555V361.5H385.5V366.555M207.5 373.555H200.5V366.555H207.5M207.5 373.555V376.555M207.5 373.555V413.555M207.5 373.555V366.555M207.5 376.555H200.5V383.555H207.5M207.5 376.555V383.555M207.5 383.555V386.555M207.5 386.555H200.5V393.555H207.5M207.5 386.555V393.555M207.5 393.555V396.555M207.5 396.555H200.5V403.555H207.5M207.5 396.555V403.555M207.5 403.555V406.555M207.5 406.555H195.5V413.555H207.5M207.5 406.555V413.555M207.5 413.555V456.555M207.5 456.555H143H125M212.5 373.555H216H217M212.5 373.555V376.555M212.5 373.555V366.555M280.5 373.555V375.055V376.555M280.5 373.555H217M280.5 373.555H385.5M212.5 383.555V386.555M212.5 383.555V376.555M212.5 383.555H226.5M385.5 383.555V376.555M385.5 383.555H272.5M385.5 383.555V386.555M385.5 366.555H289.5M385.5 366.555V373.555M385.5 406.555H280.5M385.5 406.555V403.555M212.5 406.555V403.555M212.5 406.555H230.5M212.5 403.555V396.555M212.5 403.555H229.5M385.5 403.555V396.555M385.5 403.555H280.5M385.5 396.555H276M385.5 396.555V393.555M212.5 396.555V393.555M212.5 396.555H226.5M212.5 393.555V386.555M212.5 393.555H226.5M385.5 393.555V386.555M385.5 393.555H276M385.5 386.555H272.5M212.5 386.555H226.5M385.5 376.555H280.5M385.5 376.555V373.555M212.5 376.555H216.5H217M280.5 376.555H217M272.5 383.555V386.555M272.5 383.555H226.5M272.5 386.555H226.5M276 393.555V396.555M276 393.555H226.5M276 396.555H226.5M280.5 403.555V406.555M280.5 403.555H229.5M280.5 406.555H230.5M230.5 406.555V405.055L229.5 403.555M226.5 396.555V393.555M226.5 386.555V383.555M289.5 366.555V360.055C290.167 359.055 291.6 356.755 292 355.555C292.4 354.355 292.5 351.721 292.5 350.555C292.5 349.555 293.7 346.455 298.5 342.055C295.667 342.055 288.3 343.555 281.5 349.555H279.5C277.167 347.888 269.8 344.255 259 343.055V340.555H262.5C264.333 340.555 269 341.055 273 343.055C272 339.888 267 332.955 255 330.555V327.055H256.5C255.7 323.782 256.833 321.024 257.5 320.055H258.5C258.5 318.098 260.167 314.239 261 312.555V309.055C260.833 308.653 260.4 307.69 260 307.055C258.319 304.187 254.867 300.605 250.5 300.502C247.505 300.432 244.08 301.998 240.5 306.555V308C240 309.536 239.6 313.498 242 317.055V320.055H243V324.555C242.667 326.555 241.1 330.555 237.5 330.555C232 332.888 220.3 338.655 217.5 343.055L217 366.555M289.5 366.555H217M217 366.555H212.5M217 376.555V373.555M207.5 366.555V360.055H212.5V366.555M284 413.555V417.055V419.055H285H285.5C286.3 426.698 292.5 428.573 295.5 428.555H296.5C302.9 432.155 299.167 434.388 296.5 435.055C288.5 437.455 281.167 437.721 278.5 437.555C277 437.37 274.2 436.611 275 435.055C275.8 433.498 276 431.073 276 430.055V425.555H274C273.6 418.355 270.833 414.555 269.5 413.555M284 413.555H246M284 413.555H269.5M249.625 456.555V451.5C249.917 450.833 250.9 449.5 252.5 449.5V445.5V442.055V439.055H249V419.055C248.833 417.221 248 413.555 246 413.555" stroke="black"/>
</g>
<path d="M141.5 446.5V456.5H182.5V446.5H174.5V383.5C173.833 381.833 171.1 378.5 165.5 378.5V69.5C165.5 48.8333 184.7 8.5 227.5 8.5C247.667 8.66667 279.5 19.3 279.5 64.5H286.5C286.5 14.1 250 1 227.5 1C177.5 1 157.833 46.8333 158.5 69.5V378.5C152.9 378.5 150.167 383.833 149.5 386.5V446.5H141.5Z" fill="#260101"/>
<path d="M286.5 64.5H279.5H277.5V71.5C271.5 72.3333 258.7 77.6 255.5 92V101.5H259.5H306H310.5V92C306.9 77.2 294.333 72.1667 288.5 71.5V64.5H286.5Z" fill="#260101"/>
<path d="M306 101.5H259.5C261.333 107.833 268.7 120.5 283.5 120.5C296.7 120.5 304 107.833 306 101.5Z" fill="url(#paint1_linear_52_153)"/>
<path d="M279.5 64.5C279.5 19.3 247.667 8.66667 227.5 8.5C184.7 8.5 165.5 48.8333 165.5 69.5V378.5C171.1 378.5 173.833 381.833 174.5 383.5V446.5H182.5V456.5H141.5V446.5H149.5V386.5C150.167 383.833 152.9 378.5 158.5 378.5V69.5C157.833 46.8333 177.5 1 227.5 1C250 1 286.5 14.1 286.5 64.5M279.5 64.5H286.5M279.5 64.5H277.5V71.5C271.5 72.3333 258.7 77.6 255.5 92V101.5H259.5M286.5 64.5H288.5V71.5C294.333 72.1667 306.9 77.2 310.5 92V101.5H306M306 101.5H259.5M306 101.5C304 107.833 296.7 120.5 283.5 120.5C268.7 120.5 261.333 107.833 259.5 101.5" stroke="black"/>
<defs>
<filter id="filter0_f_52_153" x="0" y="52" width="608" height="454" filterUnits="userSpaceOnUse" color-interpolation-filters="sRGB">
<feFlood flood-opacity="0" result="BackgroundImageFix"/>
<feBlend mode="normal" in="SourceGraphic" in2="BackgroundImageFix" result="shape"/>
<feGaussianBlur stdDeviation="25" result="effect1_foregroundBlur_52_153"/>
</filter>
<filter id="filter1_d_52_153" x="121" y="300" width="314.5" height="165.054" filterUnits="userSpaceOnUse" color-interpolation-filters="sRGB">
<feFlood flood-opacity="0" result="BackgroundImageFix"/>
<feColorMatrix in="SourceAlpha" type="matrix" values="0 0 0 0 0 0 0 0 0 0 0 0 0 0 0 0 0 0 127 0" result="hardAlpha"/>
<feOffset dy="4"/>
<feGaussianBlur stdDeviation="2"/>
<feComposite in2="hardAlpha" operator="out"/>
<feColorMatrix type="matrix" values="0 0 0 0 0 0 0 0 0 0 0 0 0 0 0 0 0 0 0.25 0"/>
<feBlend mode="normal" in2="BackgroundImageFix" result="effect1_dropShadow_52_153"/>
<feBlend mode="normal" in="SourceGraphic" in2="effect1_dropShadow_52_153" result="shape"/>
</filter>
<linearGradient id="paint0_linear_52_153" x1="304" y1="102" x2="304" y2="456" gradientUnits="userSpaceOnUse">
<stop stop-color="white"/>
<stop offset="1" stop-color="white" stop-opacity="0"/>
</linearGradient>
<linearGradient id="paint1_linear_52_153" x1="268" y1="53.5" x2="297.5" y2="213.5" gradientUnits="userSpaceOnUse">
<stop stop-color="white"/>
<stop offset="1" stop-color="white"/>
</linearGradient>
</defs>
</svg>
